<svg id="레이어_1" data-name="레이어 1" xmlns="http://www.w3.org/2000/svg" viewBox="0 0 692.61 1011.22"><defs><style>.cls-1{fill:none;stroke:#450000;stroke-linecap:round;stroke-linejoin:round;stroke-width:10px;}</style></defs><title>무제-1-02</title><path class="cls-1" d="M273.16,14.61s-8,434-30,428-39-69,56-131,222,13,254,59c33.71,48.46,99,147,86,161s-23-31-65-17-518,304-555,407,128.09-69.18,161-96c108-88,257.21-137.85,235-168-14-19-37,8-47-10s78-88,86-108,12-80-79-103-88,33-131,35-69-74-36-90,95,39,67,117-76,203-49,202,169-228,255-269,13-50-43,5-91,85-127,129-65,74-63-13,15-73,12-55-12,72-28,77-34-17-21-20,24,13,12,45-23,30-26,10,32-14,16,28-34,28-27,14,27,0,11,30-31,13-26,5,28,6,4,35-22-13-14-14,24,27-5,41-17-15-11-15,11,6-18,29-157,134-102,205,216.82,19.56,293-37c66-49,87-99,152-135s216-105,210-153c-4.33-34.66-46-53-86-43s-113,64-137,50-5-112,190-88"/></svg>