<svg id="레이어_1" data-name="레이어 1" xmlns="http://www.w3.org/2000/svg" viewBox="0 0 614.48 1851.95"><defs><style>.cls-1{fill:none;stroke:#450000;stroke-linecap:round;stroke-linejoin:round;stroke-width:10px;}</style></defs><title>무제-1-03</title><path class="cls-1" d="M276.61,16.62s90,1207,104,1207,32-103-35-135-155-36-176-23-120,82-77,180,113,228,117,163,30-33,28,4-1,141-49,87-80-154-94-207-19-93-42-51-64,108-32,167,122,228,204,319c23.58,26.17,117,102,212,107s168-16,169-70-39-120-73-161-65-63-63-79,11-21,19-17,2,17-33,14-86,37-127,29-65-38-82-18-13,43,15,63,92,54,86,68-39,35,2,50,182,30,202-12,45-25,37,11-29,45-76,49-160-9-257-107-139-133-158-207-19-164,35-178,112,20,134,6,60-100-5-107-111-15-69-75-29-35-28-15,2,50,64,40,93-14,100,41-5,82,19,82-5-131,54-115,13,84,9,91-33,53-10,51,10-21,2-20-24,26-50,24-84,12-76-22,25,42,63,49,79,15,71,0-45,0-79,15-61,27-74,7,51,3,81,8,77,12,83,1-20-12-60,23-66,53-73,39,29-26,86-23,60-1,54-8-26-16-63,24-44,69-60,56,23-24,69-28,63,6,64-6-32-17-64,27-42,65-55,57,11-45,80-44,70-3,65-12-46,2-74,38-21,74-41,68,4-45,55-54,69,13,73-6-44-4-71,43-38,58-44,45,44-33,37-10-52,84-117,74-116-62-122-111"/></svg>